<?xml version="1.0" encoding="iso-8859-1"?>
<!-- Uploaded to: SVG Repo, www.svgrepo.com, Generator: SVG Repo Mixer Tools -->
<!DOCTYPE svg PUBLIC "-//W3C//DTD SVG 1.1//EN" "http://www.w3.org/Graphics/SVG/1.1/DTD/svg11.dtd">
<svg fill="#FA9616" version="1.1" id="Capa_1" xmlns="http://www.w3.org/2000/svg" xmlns:xlink="http://www.w3.org/1999/xlink" 
	 width="800px" height="800px" viewBox="0 0 28.5 28.5" xml:space="preserve">
<g>
	<g>
		<path fill="#FA9616" d="M18.674,9.061l-8.578,0.011c-0.004-1.738,1.193-2.455,2.862-2.683l0.961,1.878l0.149-1.222L13.832,6.85h0.525h0.574
			l-0.238,0.193l0.154,1.223l0.957-1.881C17.475,6.609,18.673,7.323,18.674,9.061z M12.582,4.263c0.004,0,0.009-0.005,0.014-0.007
			c0.289,1.041,1.036,1.82,1.791,1.835c0.689-0.032,1.534-0.798,1.816-1.834c0.13,0.007,0.259-0.146,0.296-0.359
			c0.036-0.222-0.042-0.42-0.177-0.442c-0.01-0.002-0.018,0.003-0.025,0.004c-0.041-1.715-0.854-2.317-1.881-2.342
			c-1.059,0.006-2.003,0.742-1.941,2.347c-0.01-0.001-0.02-0.006-0.031-0.005c-0.131,0.024-0.211,0.221-0.172,0.443
			C12.311,4.124,12.448,4.286,12.582,4.263z M5.07,15.815c0.007,0,0.01-0.004,0.015-0.006c0.288,1.041,1.036,1.819,1.791,1.836
			c0.688-0.031,1.534-0.799,1.815-1.836c0.131,0.006,0.26-0.146,0.297-0.357c0.037-0.223-0.043-0.421-0.178-0.443
			c-0.009-0.001-0.017,0.003-0.024,0.005c-0.042-1.715-0.854-2.316-1.882-2.342c-1.057,0.006-2.004,0.743-1.94,2.348
			c-0.01,0-0.021-0.006-0.03-0.006c-0.132,0.023-0.211,0.221-0.174,0.443C4.799,15.681,4.938,15.84,5.07,15.815z M8.294,17.938
			l-0.957,1.881l-0.153-1.221l0.236-0.193H6.848H6.323l0.236,0.193l-0.148,1.224l-0.962-1.88c-1.669,0.229-2.867,0.945-2.863,2.685
			l8.579-0.011C11.162,18.878,9.963,18.165,8.294,17.938z M22.359,19.819l-0.154-1.221l0.236-0.193h-0.574h-0.524l0.237,0.193
			l-0.15,1.224l-0.961-1.88c-1.669,0.229-2.865,0.945-2.863,2.685l8.58-0.011c0-1.738-1.201-2.451-2.869-2.678L22.359,19.819z
			 M9.911,24.188c-0.005,0-0.011-0.004-0.017-0.002c-0.076,0.014-0.121,0.125-0.101,0.252c0.021,0.125,0.103,0.218,0.179,0.205
			c0.004,0,0.006-0.002,0.008-0.004c0.164,0.594,0.59,1.036,1.021,1.047c0.392-0.021,0.873-0.455,1.034-1.047
			c0.072,0.004,0.146-0.082,0.167-0.203c0.022-0.127-0.022-0.24-0.099-0.254c-0.008,0-0.012,0.002-0.016,0.004
			c-0.023-0.979-0.486-1.32-1.072-1.334C10.414,22.854,9.877,23.272,9.911,24.188z M20.093,15.815c0.005,0,0.009-0.004,0.015-0.006
			c0.289,1.041,1.035,1.819,1.791,1.836c0.688-0.031,1.535-0.799,1.815-1.836c0.129,0.006,0.259-0.146,0.295-0.357
			c0.037-0.223-0.042-0.421-0.176-0.443c-0.009-0.001-0.019,0.003-0.024,0.005c-0.041-1.715-0.854-2.316-1.881-2.342
			c-1.059,0.006-2.004,0.743-1.943,2.348c-0.01,0-0.019-0.006-0.027-0.006c-0.133,0.023-0.212,0.221-0.175,0.443
			C19.818,15.679,19.958,15.84,20.093,15.815z M18.59,24.185c-0.023-0.978-0.488-1.319-1.07-1.334
			c-0.604,0.004-1.143,0.424-1.105,1.338c-0.005,0-0.012-0.004-0.018-0.002c-0.076,0.014-0.121,0.125-0.101,0.252
			c0.022,0.125,0.101,0.218,0.179,0.205c0.002,0,0.004-0.002,0.006-0.004c0.164,0.594,0.593,1.036,1.021,1.047
			c0.393-0.021,0.873-0.455,1.033-1.047c0.074,0.004,0.148-0.082,0.17-0.203c0.021-0.127-0.025-0.24-0.102-0.254
			C18.598,24.181,18.596,24.185,18.59,24.185z M24.968,24.188c-0.005,0-0.011-0.004-0.017-0.002c-0.075,0.014-0.121,0.125-0.1,0.252
			c0.021,0.125,0.102,0.218,0.178,0.205c0.004,0,0.006-0.002,0.008-0.004c0.165,0.594,0.589,1.036,1.021,1.047
			c0.392-0.021,0.873-0.455,1.032-1.047c0.073,0.004,0.146-0.082,0.167-0.203c0.021-0.127-0.021-0.24-0.099-0.254
			c-0.009,0-0.013,0.002-0.017,0.004c-0.022-0.979-0.485-1.32-1.072-1.334C25.471,22.854,24.934,23.272,24.968,24.188z
			 M24.175,24.726l-2.198-1.271v-2.037h-0.396v2.037l-2.199,1.271l0.197,0.342l2.198-1.271l2.199,1.271L24.175,24.726z
			 M18.592,15.963l-3.859-2.229v-3.576H14.04v3.576l-3.861,2.229l0.348,0.603l3.861-2.229l3.859,2.229L18.592,15.963z
			 M18.311,25.853l-0.545,1.069l-0.089-0.694l0.136-0.11h-0.328l-0.299,0.001l0.138,0.109l-0.087,0.695l-0.549-1.068
			c-0.949,0.129-1.632,0.539-1.63,1.527l4.886-0.006C19.941,26.385,19.26,25.979,18.311,25.853z M26.866,25.853l-0.546,1.069
			l-0.088-0.694l0.136-0.11H26.04l-0.299,0.001l0.135,0.109l-0.085,0.695l-0.548-1.068c-0.949,0.129-1.632,0.539-1.63,1.527
			l4.887-0.006C28.499,26.385,27.816,25.979,26.866,25.853z M9.118,24.726l-2.199-1.271v-2.037H6.523v2.037l-2.198,1.271
			l0.196,0.342l2.199-1.271l2.199,1.271L9.118,24.726z M3.253,25.853l-0.545,1.069L2.62,26.228l0.135-0.11H2.43l-0.301,0.001
			l0.137,0.109L2.18,26.923l-0.549-1.068C0.682,25.983-0.002,26.394,0,27.382l4.887-0.006C4.887,26.385,4.203,25.979,3.253,25.853z
			 M1.418,24.644c0.002,0,0.004-0.004,0.006-0.004c0.164,0.592,0.592,1.035,1.021,1.045c0.393-0.02,0.873-0.455,1.033-1.045
			c0.074,0.004,0.148-0.084,0.17-0.205c0.021-0.125-0.025-0.24-0.103-0.252c-0.005,0-0.009,0.002-0.014,0.002
			c-0.024-0.978-0.488-1.319-1.071-1.334c-0.604,0.004-1.143,0.424-1.105,1.338c-0.006,0-0.01-0.004-0.018-0.002
			c-0.074,0.014-0.12,0.125-0.1,0.252C1.262,24.562,1.34,24.653,1.418,24.644z M11.811,25.853l-0.547,1.069l-0.088-0.694l0.137-0.11
			h-0.328l-0.299,0.001l0.135,0.109l-0.086,0.695l-0.547-1.068c-0.949,0.129-1.633,0.539-1.631,1.527l4.887-0.006
			C13.441,26.385,12.76,25.979,11.811,25.853z"/>
	</g>
</g>
</svg>